<svg xmlns="http://www.w3.org/2000/svg" xmlns:xlink="http://www.w3.org/1999/xlink" width="1080" zoomAndPan="magnify" viewBox="0 0 810 809.999993" height="1080" preserveAspectRatio="xMidYMid meet" version="1.0"><defs><g/></defs><g fill="#ffffff" fill-opacity="1"><g transform="translate(96.028783, 503.249995)"><g><path d="M 104.40625 47.40625 C 86 47.195312 71.492188 43.191406 60.890625 35.390625 C 50.296875 27.597656 45 15.703125 45 -0.296875 L 45 -44.40625 C 45 -54.601562 41.847656 -61.847656 35.546875 -66.140625 C 29.242188 -70.441406 20.195312 -72.59375 8.40625 -72.59375 L 8.40625 -94.5 C 20.195312 -94.695312 29.242188 -96.894531 35.546875 -101.09375 C 41.847656 -105.300781 45 -112.40625 45 -122.40625 L 45 -166.796875 C 45 -182.796875 50.5 -194.695312 61.5 -202.5 C 72.5 -210.300781 86.800781 -214.203125 104.40625 -214.203125 L 104.40625 -192.59375 C 94 -192.195312 85.84375 -189.847656 79.9375 -185.546875 C 74.039062 -181.242188 71.09375 -174.195312 71.09375 -164.40625 L 71.09375 -121.203125 C 71.09375 -100.597656 60.195312 -88.394531 38.40625 -84.59375 L 38.40625 -82.796875 C 60.195312 -78.992188 71.09375 -66.796875 71.09375 -46.203125 L 71.09375 -2.09375 C 71.09375 7.695312 73.992188 14.742188 79.796875 19.046875 C 85.597656 23.347656 93.800781 25.597656 104.40625 25.796875 Z M 104.40625 47.40625 "/></g></g></g><g fill="#ffffff" fill-opacity="1"><g transform="translate(210.028594, 503.249995)"><g/></g></g><g fill="#ffffff" fill-opacity="1"><g transform="translate(309.930933, 503.249995)"><g><path d="M 118.652344 -107.8125 L 68.847656 -107.8125 L 68.847656 -177.246094 L 140.625 -177.246094 L 157.324219 -143.554688 L 162.597656 -143.554688 L 162.597656 -193.359375 L 19.042969 -193.359375 L 19.042969 -187.792969 L 42.480469 -177.246094 L 42.480469 -16.113281 L 19.042969 -5.566406 L 19.042969 0 L 169.921875 0 L 169.921875 -52.734375 L 164.648438 -52.734375 L 147.949219 -16.113281 L 68.847656 -16.113281 L 68.847656 -91.699219 L 118.652344 -91.699219 L 130.957031 -68.261719 L 137.695312 -68.261719 L 137.695312 -131.25 C 137.695312 -130.957031 137.109375 -130.957031 136.523438 -131.25 C 134.765625 -131.25 133.300781 -130.957031 132.421875 -130.957031 C 131.542969 -130.957031 130.957031 -131.25 130.957031 -131.25 Z M 118.652344 -107.8125 "/></g></g></g><g fill="#ffffff" fill-opacity="1"><g transform="translate(500.067642, 503.249995)"><g/></g></g><g fill="#ffffff" fill-opacity="1"><g transform="translate(599.96998, 503.249995)"><g><path d="M 9.59375 47.40625 L 9.59375 25.796875 C 20 25.398438 28.148438 23.050781 34.046875 18.75 C 39.953125 14.445312 42.90625 7.394531 42.90625 -2.40625 L 42.90625 -45.90625 C 42.90625 -66.5 53.800781 -78.695312 75.59375 -82.5 L 75.59375 -84.296875 C 53.800781 -88.097656 42.90625 -100.300781 42.90625 -120.90625 L 42.90625 -164.703125 C 42.90625 -174.503906 40.003906 -181.550781 34.203125 -185.84375 C 28.398438 -190.144531 20.195312 -192.394531 9.59375 -192.59375 L 9.59375 -214.203125 C 28 -214.003906 42.5 -210.003906 53.09375 -202.203125 C 63.695312 -194.398438 69 -182.5 69 -166.5 L 69 -122.703125 C 69 -112.503906 72.148438 -105.253906 78.453125 -100.953125 C 84.753906 -96.648438 93.800781 -94.5 105.59375 -94.5 L 105.59375 -72.59375 C 93.800781 -72.394531 84.753906 -70.195312 78.453125 -66 C 72.148438 -61.800781 69 -54.703125 69 -44.703125 L 69 0 C 69 16 63.5 27.898438 52.5 35.703125 C 41.5 43.503906 27.195312 47.40625 9.59375 47.40625 Z M 9.59375 47.40625 "/></g></g></g></svg>